<svg xmlns="http://www.w3.org/2000/svg" xmlns:xlink="http://www.w3.org/1999/xlink" version="1.1" x="0px" y="0px" viewBox="0 0 64 64" style="enable-background:new 0 0 64 64;" xml:space="preserve"><path d="M21,42v12c0,0.6,0.4,1,1,1s1-0.4,1-1V42c0-0.6-0.4-1-1-1S21,41.4,21,42z"></path><path d="M25,42v12c0,0.6,0.4,1,1,1s1-0.4,1-1V42c0-0.6-0.4-1-1-1S25,41.4,25,42z"></path><path d="M29,42v12c0,0.6,0.4,1,1,1s1-0.4,1-1V42c0-0.6-0.4-1-1-1S29,41.4,29,42z"></path><path d="M33,42v12c0,0.6,0.4,1,1,1s1-0.4,1-1V42c0-0.6-0.4-1-1-1S33,41.4,33,42z"></path><path d="M38,41c-0.6,0-1,0.4-1,1v12c0,0.6,0.4,1,1,1s1-0.4,1-1V42C39,41.4,38.6,41,38,41z"></path><path d="M42,55c0.6,0,1-0.4,1-1V42c0-0.6-0.4-1-1-1s-1,0.4-1,1v12C41,54.6,41.4,55,42,55z"></path><path d="M62,41H47v-3c0-0.6-0.4-1-1-1h-1.1c-0.4-2-2-3.5-3.9-3.9c-0.1-0.9-0.3-1.8-0.7-2.6C40.1,30,39.5,29.8,39,30  c-0.5,0.2-0.7,0.8-0.5,1.3c0.2,0.6,0.4,1.1,0.5,1.7h-2c-0.2-2.3-0.9-4-1.7-5.2c0.4,0.2,0.7,0.4,1,0.7c0.4,0.3,1.1,0.3,1.4-0.2  c0.3-0.4,0.3-1.1-0.2-1.4c-0.8-0.6-1.6-1.1-2.6-1.4V24c0-1.3-0.8-2.4-2-2.8V19h5c0.6,0,1-0.4,1-1v-4c0-0.6-0.4-1-1-1h-6  c-0.6,0-1,0.4-1,1v7.2c-1.2,0.4-2,1.5-2,2.8v1.5c-3.2,1.1-5.6,4.1-6,7.6c-2,0.4-3.5,1.9-3.9,3.9H18c-0.6,0-1,0.4-1,1v3H2  c-0.6,0-1,0.4-1,1v4c0,0.6,0.4,1,1,1s1-0.4,1-1v-3h14v14h-1c-0.6,0-1,0.4-1,1v3H3V50c0-0.6-0.4-1-1-1s-1,0.4-1,1v12c0,0.6,0.4,1,1,1  h18c0.6,0,1-0.4,1-1s-0.4-1-1-1h-3v-2h21c0.6,0,1-0.4,1-1s-0.4-1-1-1H19V39h5c0.6,0,1-0.4,1-1s-0.4-1-1-1h-2.8c0.4-1.2,1.5-2,2.8-2  h16c1.3,0,2.4,0.8,2.8,2H28c-0.6,0-1,0.4-1,1s0.4,1,1,1h17v18h-3c-0.6,0-1,0.4-1,1s0.4,1,1,1h5v2H24c-0.6,0-1,0.4-1,1s0.4,1,1,1h38  c0.6,0,1-0.4,1-1v-4c0-0.6-0.4-1-1-1s-1,0.4-1,1v3H49v-3c0-0.6-0.4-1-1-1h-1V43h14v11c0,0.6,0.4,1,1,1s1-0.4,1-1V42  C63,41.4,62.6,41,62,41z M33,15h4v2h-4V15z M27,33h-2c0.3-2.2,1.7-4.1,3.6-5.2C27.9,29,27.2,30.7,27,33z M31,33h-2  c0.2-2.4,1.1-4,2-4.9V33z M31,25.1V24c0-0.6,0.4-1,1-1c0.6,0,1,0.4,1,1v1.1C32.7,25,32,24.9,31,25.1z M33,33v-4.9  c0.8,0.9,1.8,2.5,2,4.9H33z"></path><path d="M50,45c-0.6,0-1,0.4-1,1v8c0,0.6,0.4,1,1,1s1-0.4,1-1v-8C51,45.4,50.6,45,50,45z"></path><path d="M55,54v-8c0-0.6-0.4-1-1-1s-1,0.4-1,1v8c0,0.6,0.4,1,1,1S55,54.6,55,54z"></path><path d="M59,46c0-0.6-0.4-1-1-1s-1,0.4-1,1v8c0,0.6,0.4,1,1,1s1-0.4,1-1V46z"></path><path d="M15,54v-8c0-0.6-0.4-1-1-1s-1,0.4-1,1v8c0,0.6,0.4,1,1,1S15,54.6,15,54z"></path><path d="M11,54v-8c0-0.6-0.4-1-1-1s-1,0.4-1,1v8c0,0.6,0.4,1,1,1S11,54.6,11,54z"></path><path d="M6,55c0.6,0,1-0.4,1-1v-8c0-0.6-0.4-1-1-1s-1,0.4-1,1v8C5,54.6,5.4,55,6,55z"></path><path d="M50,11h10c1.7,0,3-1.3,3-3c0-1.3-0.9-2.5-2.1-2.9C60.5,2.8,58.5,1,56,1c-1.8,0-3.5,1-4.4,2.6c-0.3,0.5-0.1,1.1,0.4,1.4  s1.1,0.1,1.4-0.4C53.9,3.6,54.9,3,56,3c1.7,0,3,1.3,3,3c0,0.6,0.4,1,1,1c0.6,0,1,0.4,1,1s-0.4,1-1,1H50c-0.6,0-1-0.4-1-1s0.4-1,1-1  c0.6,0,1-0.4,1-1s-0.4-1-1-1c-1.7,0-3,1.3-3,3S48.3,11,50,11z"></path><path d="M4,11h10c1.7,0,3-1.3,3-3c0-1.3-0.9-2.5-2.1-2.9C14.5,2.8,12.5,1,10,1C8.2,1,6.5,2,5.6,3.6C5.4,4.1,5.5,4.7,6,4.9  C6.5,5.2,7.1,5,7.4,4.6C7.9,3.6,8.9,3,10,3c1.7,0,3,1.3,3,3c0,0.6,0.4,1,1,1c0.6,0,1,0.4,1,1s-0.4,1-1,1H4C3.4,9,3,8.6,3,8  s0.4-1,1-1c0.6,0,1-0.4,1-1S4.6,5,4,5C2.3,5,1,6.3,1,8S2.3,11,4,11z"></path><path d="M52,59h6c0.6,0,1-0.4,1-1s-0.4-1-1-1h-6c-0.6,0-1,0.4-1,1S51.4,59,52,59z"></path><path d="M6,59h6c0.6,0,1-0.4,1-1s-0.4-1-1-1H6c-0.6,0-1,0.4-1,1S5.4,59,6,59z"></path></svg>